<svg width="31" height="31" viewBox="0 0 31 31" fill="none" xmlns="http://www.w3.org/2000/svg">
<path d="M3.84161 28.0746L4.28245 27.4678H4.28245L3.84161 28.0746ZM2.18237 26.4154L1.57561 26.8562L1.57561 26.8562L2.18237 26.4154ZM24.6584 28.0746L24.2175 27.4678V27.4678L24.6584 28.0746ZM26.3176 26.4154L25.7109 25.9745V25.9745L26.3176 26.4154ZM2.18237 5.59858L1.57561 5.15774L1.57561 5.15774L2.18237 5.59858ZM3.84161 3.93934L4.28245 4.5461V4.5461L3.84161 3.93934ZM11.259 3.26772C11.6732 3.26276 12.0049 2.92297 11.9999 2.50879C11.995 2.0946 11.6552 1.76286 11.241 1.76783L11.25 2.51778L11.259 3.26772ZM28.4891 19.016C28.4941 18.6018 28.1624 18.262 27.7482 18.257C27.334 18.2521 26.9942 18.5838 26.9892 18.998L27.7392 19.007L28.4891 19.016ZM15.4463 22.0136L15.3635 21.2682L15.4463 22.0136ZM9.26666 21.5674L8.73633 22.0978H8.73633L9.26666 21.5674ZM8.82045 15.3878L9.56586 15.4706L8.82045 15.3878ZM10.5411 11.8077L10.0108 11.2774V11.2774L10.5411 11.8077ZM9.2144 13.3736L8.53842 13.0487V13.0487L9.2144 13.3736ZM19.0264 20.293L19.5567 20.8233V20.8233L19.0264 20.293ZM17.4605 21.6197L17.7854 22.2957H17.7854L17.4605 21.6197ZM14.25 29.507V28.757C11.421 28.757 9.35948 28.7559 7.75668 28.5823C6.1679 28.4102 5.11904 28.0756 4.28245 27.4678L3.84161 28.0746L3.40077 28.6814C4.53568 29.5059 5.87871 29.8876 7.59511 30.0736C9.29747 30.258 11.4544 30.257 14.25 30.257V29.507ZM0.75 16.007H0C0 18.8026 -0.00102943 20.9595 0.18341 22.6619C0.36937 24.3783 0.751052 25.7213 1.57561 26.8562L2.18237 26.4154L2.78914 25.9745C2.18132 25.1379 1.84682 24.0891 1.67468 22.5003C1.50103 20.8975 1.5 18.836 1.5 16.007H0.75ZM3.84161 28.0746L4.28245 27.4678C3.70941 27.0515 3.20547 26.5476 2.78914 25.9745L2.18237 26.4154L1.57561 26.8562C2.08447 27.5566 2.70039 28.1725 3.40077 28.6814L3.84161 28.0746ZM14.25 29.507V30.257C17.0456 30.257 19.2025 30.258 20.9049 30.0736C22.6213 29.8876 23.9643 29.5059 25.0992 28.6814L24.6584 28.0746L24.2175 27.4678C23.381 28.0756 22.3321 28.4102 20.7433 28.5823C19.1405 28.7559 17.079 28.757 14.25 28.757V29.507ZM26.3176 26.4154L25.7109 25.9745C25.2945 26.5476 24.7906 27.0515 24.2175 27.4678L24.6584 28.0746L25.0992 28.6814C25.7996 28.1725 26.4155 27.5566 26.9244 26.8562L26.3176 26.4154ZM0.75 16.007H1.5C1.5 13.178 1.50103 11.1165 1.67468 9.51364C1.84682 7.92487 2.18132 6.876 2.78913 6.03942L2.18237 5.59858L1.57561 5.15774C0.751052 6.29264 0.36937 7.63567 0.18341 9.35207C-0.00102943 11.0544 0 13.2114 0 16.007H0.75ZM3.84161 3.93934L3.40077 3.33258C2.70039 3.84143 2.08447 4.45736 1.57561 5.15774L2.18237 5.59858L2.78913 6.03942C3.20547 5.46638 3.70941 4.96244 4.28245 4.5461L3.84161 3.93934ZM11.25 2.51778L11.241 1.76783C7.58266 1.81168 5.20774 2.01974 3.40077 3.33258L3.84161 3.93934L4.28245 4.5461C5.64507 3.5561 7.52636 3.31247 11.259 3.26772L11.25 2.51778ZM27.7392 19.007L26.9892 18.998C26.9445 22.7306 26.7009 24.6119 25.7109 25.9745L26.3176 26.4154L26.9244 26.8562C28.2372 25.0492 28.4453 22.6743 28.4891 19.016L27.7392 19.007ZM27.0841 12.2353L26.5538 11.7049L18.4961 19.7627L19.0264 20.293L19.5567 20.8233L27.6144 12.7656L27.0841 12.2353ZM10.5411 11.8077L11.0714 12.338L19.1291 4.28033L18.5988 3.75L18.0685 3.21967L10.0108 11.2774L10.5411 11.8077ZM15.4463 22.0136L15.3635 21.2682C13.6202 21.4619 12.3939 21.5963 11.473 21.5666C10.5723 21.5375 10.1132 21.3533 9.79699 21.0371L9.26666 21.5674L8.73633 22.0978C9.43965 22.8011 10.3504 23.0311 11.4246 23.0658C12.4787 23.0999 13.8324 22.9476 15.5292 22.7591L15.4463 22.0136ZM8.82045 15.3878L8.07503 15.3049C7.8865 17.0017 7.73423 18.3554 7.76827 19.4095C7.80296 20.4837 8.03301 21.3944 8.73633 22.0978L9.26666 21.5674L9.79699 21.0371C9.48075 20.7209 9.29658 20.2618 9.26749 19.3611C9.23775 18.4402 9.37215 17.2139 9.56586 15.4706L8.82045 15.3878ZM10.5411 11.8077L10.0108 11.2774C9.31001 11.9781 8.82785 12.4465 8.53842 13.0487L9.2144 13.3736L9.89038 13.6985C10.0436 13.3797 10.2984 13.1111 11.0714 12.338L10.5411 11.8077ZM8.82045 15.3878L9.56586 15.4706C9.68659 14.384 9.73716 14.0172 9.89038 13.6985L9.2144 13.3736L8.53842 13.0487C8.24899 13.6509 8.18447 14.32 8.07503 15.3049L8.82045 15.3878ZM19.0264 20.293L18.4961 19.7627C17.723 20.5357 17.4544 20.7905 17.1356 20.9437L17.4605 21.6197L17.7854 22.2957C18.3876 22.0062 18.856 21.5241 19.5567 20.8233L19.0264 20.293ZM15.4463 22.0136L15.5292 22.7591C16.5141 22.6496 17.1832 22.5851 17.7854 22.2957L17.4605 21.6197L17.1356 20.9437C16.8169 21.0969 16.4501 21.1475 15.3635 21.2682L15.4463 22.0136ZM27.0841 3.75L26.5538 4.28033C27.5688 5.29532 28.2755 6.00434 28.7378 6.61026C29.1869 7.19888 29.3341 7.60124 29.3341 7.99264H30.0841H30.8341C30.8341 7.1414 30.4813 6.42244 29.9304 5.70039C29.3927 4.99566 28.5994 4.20468 27.6144 3.21967L27.0841 3.75ZM27.0841 12.2353L27.6144 12.7656C28.5994 11.7806 29.3927 10.9896 29.9304 10.2849C30.4813 9.56284 30.8341 8.84388 30.8341 7.99264H30.0841H29.3341C29.3341 8.38404 29.1869 8.7864 28.7378 9.37501C28.2755 9.98094 27.5688 10.69 26.5538 11.7049L27.0841 12.2353ZM27.0841 3.75L27.6144 3.21967C26.6294 2.23466 25.8384 1.44143 25.1337 0.903733C24.4117 0.352832 23.6927 0 22.8414 0V0.75V1.5C23.2329 1.5 23.6352 1.64717 24.2238 2.09627C24.8297 2.55857 25.5388 3.26534 26.5538 4.28033L27.0841 3.75ZM18.5988 3.75L19.1291 4.28033C20.1441 3.26534 20.8532 2.55857 21.4591 2.09627C22.0477 1.64717 22.45 1.5 22.8414 1.5V0.75V0C21.9902 0 21.2712 0.352832 20.5492 0.903733C19.8445 1.44143 19.0535 2.23466 18.0685 3.21967L18.5988 3.75ZM27.0841 12.2353L27.6144 11.7049L19.1291 3.21967L18.5988 3.75L18.0685 4.28033L26.5538 12.7656L27.0841 12.2353Z" fill="#E8A23D"/>
</svg>
