<svg width="33" height="32" viewBox="0 0 33 32" fill="none" xmlns="http://www.w3.org/2000/svg">
<path d="M21.75 17.7106C21.75 14.3991 21.75 12.7433 21.1142 11.4785C20.5549 10.3659 19.6626 9.46135 18.5649 8.89446C17.3171 8.25 15.6836 8.25 12.4167 8.25H10.0833C7.87404 8.25 6.41176 8.25 5.3106 8.44931C4.78344 8.54472 4.33903 8.68582 3.93506 8.89446C2.83744 9.46135 1.94506 10.3659 1.3858 11.4785C0.75 12.7433 0.75 14.3991 0.75 17.7106V22.7109C0.75 25.1742 2.72007 27.1712 5.15027 27.1712H5.85231C6.76126 27.1712 7.38279 28.1017 7.04522 28.9571C6.56866 30.1648 7.94075 31.2565 8.98489 30.5005L12.0308 28.2953C12.0618 28.2728 12.0774 28.2615 12.0926 28.2506C13.0656 27.5556 14.2251 27.179 15.4154 27.1713C15.434 27.1712 15.4589 27.1712 15.5088 27.1712C15.8727 27.1712 16.0547 27.1712 16.1925 27.1645C16.9687 27.1273 17.7048 26.9371 18.3721 26.6229C20.2883 25.7209 21.638 23.7969 21.7435 21.5379C21.75 21.3982 21.75 21.2328 21.75 20.9021V17.7106Z" fill="#E2F0E5"/>
<path d="M18.3721 26.6229C17.7048 26.9371 16.9687 27.1273 16.1925 27.1645C16.0547 27.1712 15.8727 27.1712 15.5088 27.1712C15.4589 27.1712 15.434 27.1712 15.4154 27.1713C14.2251 27.179 13.0656 27.5556 12.0926 28.2506C12.0774 28.2615 12.0618 28.2728 12.0308 28.2953L8.98489 30.5005C7.94075 31.2565 6.56866 30.1648 7.04522 28.9571C7.38279 28.1017 6.76126 27.1712 5.85231 27.1712H5.15027C2.72007 27.1712 0.75 25.1742 0.75 22.7109V17.7106C0.75 14.3991 0.75 12.7433 1.3858 11.4785C1.94506 10.3659 2.83744 9.46135 3.93506 8.89446C4.33903 8.68582 4.78344 8.54472 5.3106 8.44931C6.41176 8.25 7.87404 8.25 10.0833 8.25H12.4167C15.6836 8.25 17.3171 8.25 18.5649 8.89446C19.6626 9.46135 20.5549 10.3659 21.1142 11.4785C21.75 12.7433 21.75 14.3991 21.75 17.7106V20.9021C21.75 21.2328 21.75 21.3982 21.7435 21.5379C21.638 23.7969 20.2883 25.7209 18.3721 26.6229ZM5.3106 8.44931C5.39426 6.87256 5.59341 5.77544 6.06745 4.84507C6.7865 3.43386 7.93386 2.2865 9.34507 1.56745C10.9494 0.75 13.0496 0.75 17.25 0.75H20.25C24.4504 0.75 26.5506 0.75 28.1549 1.56745C29.5661 2.2865 30.7135 3.43386 31.4325 4.84507C32.25 6.44941 32.25 8.54961 32.25 12.75V19.0925C32.25 22.2171 29.7171 24.75 26.5925 24.75H25.6899C24.5212 24.75 23.7221 25.9303 24.1561 27.0154C24.7689 28.5471 23.0048 29.932 21.6623 28.9731L18.3721 26.6229" stroke="#0F8A4F" stroke-width="1.5"/>
<path d="M6.75 17.75C7.30228 17.75 7.75 18.1977 7.75 18.75C7.75 19.3023 7.30228 19.75 6.75 19.75C6.19772 19.75 5.75 19.3023 5.75 18.75C5.75 18.1977 6.19772 17.75 6.75 17.75ZM11.25 17.75C11.8023 17.75 12.25 18.1977 12.25 18.75C12.25 19.3023 11.8023 19.75 11.25 19.75C10.6977 19.75 10.25 19.3023 10.25 18.75C10.25 18.1977 10.6977 17.75 11.25 17.75ZM15.75 17.75C16.3023 17.75 16.75 18.1977 16.75 18.75C16.75 19.3023 16.3023 19.75 15.75 19.75C15.1977 19.75 14.75 19.3023 14.75 18.75C14.75 18.1977 15.1977 17.75 15.75 17.75Z" fill="white" stroke="#0F8A4F"/>
</svg>
