<svg width="29" height="32" viewBox="0 0 29 32" fill="none" xmlns="http://www.w3.org/2000/svg">
<path d="M18.3095 0.75C19.7593 0.75 20.9345 1.92525 20.9345 3.375C20.9345 4.82475 22.1098 6 23.5595 6H24.4436C26.2604 6 27.7602 7.38982 27.6906 9.20535C27.5692 12.3747 26.9525 17.3713 24.5498 21.75C23.9158 22.9053 23.0549 24.0645 22.0987 25.1692C19.1289 28.6005 17.6439 30.3161 14.2163 30.3161C10.7886 30.3161 9.30369 28.6005 6.33382 25.1692C5.37768 24.0645 4.51671 22.9053 3.88279 21.75C1.55206 17.5025 0.901825 12.9893 0.754094 10.063C0.662726 8.25316 2.16008 6.875 3.97222 6.875H4.43552C6.12689 6.875 7.49802 5.50387 7.49802 3.8125C7.49802 2.12113 8.86915 0.75 10.5605 0.75H18.3095Z" stroke="#FF383C" stroke-width="1.5"/>
<path d="M12.2512 11.2247C12.8697 9.25842 15.5627 9.25842 16.1812 11.2247C16.4578 12.1041 17.2511 12.6995 18.1461 12.6995C20.1476 12.6995 20.9798 15.3451 19.3606 16.5604C18.6364 17.1039 18.3334 18.0672 18.61 18.9465C19.2285 20.9129 17.0498 22.548 15.4306 21.3327C14.7065 20.7892 13.7259 20.7892 13.0018 21.3327C11.3825 22.548 9.20389 20.9129 9.82238 18.9465C10.099 18.0672 9.79597 17.1039 9.07183 16.5604C7.4526 15.3451 8.28478 12.6995 10.2863 12.6995C11.1813 12.6995 11.9746 12.1041 12.2512 11.2247Z" stroke="#FF383C" stroke-width="1.5"/>
</svg>
