<svg width="26" height="35" viewBox="0 0 26 35" fill="none" xmlns="http://www.w3.org/2000/svg">
<path d="M17.5051 31.7166L17.0249 32.2927H17.0249L17.5051 31.7166ZM16.0969 30.5428L16.5771 29.9667L16.5771 29.9667L16.0969 30.5428ZM9.40307 30.5428L8.92287 29.9667V29.9667L9.40307 30.5428ZM7.99489 31.7166L8.47509 32.2927H8.47509L7.99489 31.7166ZM21.7495 20.7188L20.9996 20.7061L20.9995 20.7133L20.9995 20.7204L21.7495 20.7188ZM21.75 20.6875L21.1877 20.1912V20.1912L21.75 20.6875ZM3.7506 20.6882L4.31287 20.1918V20.1918L3.7506 20.6882ZM0.75 12.75H1.5C1.5 6.5368 6.5368 1.5 12.75 1.5V0.75V0C5.70837 0 0 5.70837 0 12.75H0.75ZM12.75 0.75V1.5C18.9632 1.5 24 6.5368 24 12.75H24.75H25.5C25.5 5.70837 19.7916 0 12.75 0V0.75ZM21.75 21.5018H21V29.818H21.75H22.5V21.5018H21.75ZM3.75 29.818H4.5V21.5018H3.75H3V29.818H3.75ZM17.5051 31.7166L17.9853 31.1404L16.5771 29.9667L16.0969 30.5428L15.6167 31.1189L17.0249 32.2927L17.5051 31.7166ZM9.40307 30.5428L8.92287 29.9667L7.51469 31.1404L7.99489 31.7166L8.47509 32.2927L9.88327 31.1189L9.40307 30.5428ZM16.0969 30.5428L16.5771 29.9667C15.7933 29.3134 15.1531 28.778 14.5866 28.4142C14.002 28.0387 13.4227 27.796 12.75 27.796V28.546V29.296C13.0285 29.296 13.3242 29.3861 13.776 29.6763C14.2458 29.978 14.8035 30.4411 15.6167 31.1189L16.0969 30.5428ZM9.40307 30.5428L9.88327 31.1189C10.6965 30.4411 11.2542 29.978 11.724 29.6763C12.1758 29.3861 12.4715 29.296 12.75 29.296V28.546V27.796C12.0773 27.796 11.498 28.0387 10.9134 28.4142C10.3469 28.778 9.70673 29.3134 8.92287 29.9667L9.40307 30.5428ZM3.75 29.818H3C3 30.965 2.99796 31.9129 3.10173 32.6099C3.20418 33.298 3.44916 34.0245 4.19226 34.3569L4.49847 33.6722L4.80468 32.9876C4.79931 32.9852 4.67005 32.9578 4.58538 32.389C4.50204 31.8292 4.5 31.0173 4.5 29.818H3.75ZM7.99489 31.7166L7.51469 31.1404C6.57944 31.92 5.94153 32.4492 5.44689 32.7541C4.94129 33.0656 4.81947 32.9942 4.80468 32.9876L4.49847 33.6722L4.19226 34.3569C4.92593 34.685 5.63634 34.3993 6.23384 34.031C6.84231 33.6561 7.57838 33.0401 8.47509 32.2927L7.99489 31.7166ZM21.75 29.818H21C21 31.0173 20.998 31.8292 20.9146 32.389C20.8299 32.9578 20.7007 32.9852 20.6953 32.9876L21.0015 33.6722L21.3077 34.3569C22.0508 34.0245 22.2958 33.298 22.3983 32.6099C22.502 31.9129 22.5 30.965 22.5 29.818H21.75ZM17.5051 31.7166L17.0249 32.2927C17.9216 33.0401 18.6577 33.6561 19.2662 34.031C19.8637 34.3993 20.5741 34.685 21.3077 34.3569L21.0015 33.6722L20.6953 32.9876C20.6805 32.9942 20.5587 33.0656 20.0531 32.7541C19.5585 32.4492 18.9206 31.92 17.9853 31.1404L17.5051 31.7166ZM21.75 21.5018H22.5C22.5 21.2251 22.5 20.9637 22.4995 20.7172L21.7495 20.7188L20.9995 20.7204C21 20.965 21 21.2247 21 21.5018H21.75ZM24.75 12.75H24C24 15.6036 22.9385 18.2075 21.1877 20.1912L21.75 20.6875L22.3123 21.1838C24.2957 18.9366 25.5 15.983 25.5 12.75H24.75ZM21.75 20.6875L21.1877 20.1912C19.1252 22.528 16.11 24 12.75 24V24.75V25.5C16.5582 25.5 19.9771 23.8295 22.3123 21.1838L21.75 20.6875ZM21.7495 20.7188L22.4994 20.7315L22.4999 20.7002L21.75 20.6875L21.0001 20.6748L20.9996 20.7061L21.7495 20.7188ZM3.75 21.5018H4.5C4.5 21.2131 4.5 20.9434 4.5006 20.6899L3.7506 20.6882L3.0006 20.6864C3 20.942 3 21.2135 3 21.5018H3.75ZM12.75 24.75V24C9.39034 24 6.37536 22.5282 4.31287 20.1918L3.7506 20.6882L3.18833 21.1845C5.52348 23.8298 8.94216 25.5 12.75 25.5V24.75ZM3.7506 20.6882L4.31287 20.1918C2.56173 18.2081 1.5 15.6039 1.5 12.75H0.75H0C0 15.9834 1.20457 18.9372 3.18833 21.1845L3.7506 20.6882Z" fill="#13294B"/>
</svg>
