<svg width="300" height="76" viewBox="0 0 300 76" fill="none" xmlns="http://www.w3.org/2000/svg">
<path d="M0 11.9065H6.168C9.17084 11.9065 11.2809 12.4716 12.5186 13.6219C13.736 14.7722 14.3649 16.8306 14.3649 19.7971V26.0531C14.3649 27.6474 14.2838 28.6968 14.1418 29.2416C13.8171 30.3516 13.107 31.0175 11.9911 31.2395C13.736 32.0467 14.6084 33.9841 14.6084 37.0515V48.4535C14.6084 51.4201 13.9997 53.4785 12.7621 54.6288C11.5447 55.7791 9.41431 56.3441 6.41147 56.3441H0V11.9065ZM8.37955 25.3871V20.4631C8.37955 18.3643 7.73028 17.3149 6.43176 17.3149H6.04626V28.4344H6.43176C7.30421 28.4344 7.87231 28.1317 8.15636 27.5061C8.29839 27.163 8.37955 26.4567 8.37955 25.3871ZM8.60273 47.8078V36.991C8.60273 35.9618 8.50128 35.2353 8.31868 34.8317C8.01434 34.2262 7.40565 33.9033 6.49263 33.9033H6.04626V50.9156H6.28973C7.28392 50.9156 7.93318 50.633 8.23752 50.0478C8.48099 49.6644 8.60273 48.9177 8.60273 47.8078Z" fill="#FF0000"/>
<path d="M24.7328 56.3845V47.8683H22.2778V56.3845H16.1707V47.8683C16.1707 31.1992 17.4286 19.2119 19.9648 11.9065H26.985C29.5617 19.3935 30.8603 31.3808 30.8603 47.8683V56.3845H24.7328ZM22.3793 9.2427V8.98035C22.3793 8.17313 22.5213 7.54753 22.7851 7.12374C23.0488 6.67977 23.3126 6.25597 23.5763 5.83218C23.7792 5.50929 23.901 5.10568 23.901 4.60117V3.83431C23.901 3.22889 23.5966 2.906 23.0082 2.906C22.4198 2.906 22.1155 3.20871 22.1155 3.83431V4.8837H19.7213V4.2581C19.7213 3.45088 19.8837 2.7042 20.2083 2.03824C20.8576 0.686139 21.8315 0 23.1908 0C24.53 0 25.5241 0.403611 26.1734 1.23101C26.7212 1.93733 27.0053 2.82528 27.0053 3.93521C27.0053 4.96442 26.6401 5.99363 25.8893 6.98247C25.4836 7.52735 25.2807 8.29421 25.2807 9.2427H22.3793ZM23.4952 19.2926C22.6227 24.701 22.1764 32.4503 22.1561 42.5003H24.8749C24.7937 36.6277 24.7126 32.7531 24.6111 30.8763C24.4488 26.4769 24.0633 22.6224 23.4952 19.2926Z" fill="#FF0000"/>
<path d="M32.4226 22.5417C32.4226 18.9697 32.7878 16.3866 33.5385 14.8529C34.6341 12.512 36.7442 11.3617 39.8688 11.3617C42.9934 11.3617 45.1238 12.512 46.2397 14.8327C46.9904 16.4068 47.3556 18.9697 47.3556 22.5619V45.8301C47.3556 49.3818 46.9904 51.965 46.2397 53.5189C45.1238 55.7993 43.0137 56.9495 39.8688 56.9495C36.7442 56.9495 34.6341 55.7993 33.5385 53.5189C32.7878 51.965 32.4226 49.402 32.4226 45.8301V22.5417ZM38.6514 48.1912C38.6514 50.3909 39.0572 51.5008 39.8688 51.5008C40.5181 51.5008 40.9036 51.077 41.0456 50.2294C41.0862 50.0074 41.1065 49.3415 41.1065 48.1912V20.0191C41.1065 17.8194 40.7007 16.7095 39.8688 16.7095C39.0572 16.7095 38.6514 17.8194 38.6514 20.0191V48.1912Z" fill="#FF0000"/>
<path d="M62.4713 11.9065V22.582C62.4713 35.9819 62.8771 45.4668 63.6886 51.0165C64.5205 45.4668 64.9263 35.9819 64.9263 22.582V11.9065H71.0334V24.8221C71.0334 31.6633 70.8508 36.991 70.4856 40.8051C69.9378 46.6978 68.8219 51.8842 67.1581 56.3845H60.1583C58.5554 52.1062 57.4801 47.1822 56.9322 41.6325C56.5467 37.8991 56.3641 32.854 56.3641 26.4971V11.9065H62.4713Z" fill="#FF0000"/>
<path d="M76.3898 3.32979H81.5028L85.1143 8.98035H80.6303L78.9463 6.72013L77.242 8.98035H72.758L76.3898 3.32979ZM73.0421 56.3845V11.9065H85.2158V17.2746H79.0883V28.4344H84.9114V33.8024H79.0883V50.9963H85.2158V56.3643H73.0421V56.3845ZM76.1667 57.9586H81.9492V63.8109H76.1667V57.9586Z" fill="#FF0000"/>
<path d="M99.0329 11.9065C100.23 14.0053 101.468 16.5884 102.766 19.6559L102.502 11.9065H108.508V56.3845H102.502V38.8678C102.502 34.8922 102.401 32.0064 102.178 30.2103C101.792 26.9612 100.96 24.2369 99.6821 22.017C99.8444 24.6405 99.9459 27.5061 99.9459 30.5937V56.3845H93.8996V11.9065H99.0329Z" fill="#FF0000"/>
<path d="M125.369 24.8826H119.14V20.0393C119.14 17.8194 118.734 16.7297 117.902 16.7297C117.09 16.7297 116.685 17.8396 116.685 20.0393V48.1912C116.685 50.3909 117.09 51.5008 117.902 51.5008C118.551 51.5008 118.937 51.077 119.079 50.2294C119.119 50.0074 119.14 49.3415 119.14 48.1912V33.7621H117.76V28.3941H125.369V56.4047H122.244L121.635 54.4673C120.864 56.1827 119.241 57.0505 116.746 57.0505C113.925 57.0505 112.079 55.7993 111.186 53.2767C110.699 51.8842 110.456 49.402 110.456 45.8704V22.5417C110.456 18.9697 110.821 16.3866 111.572 14.8529C112.667 12.512 114.777 11.3617 117.902 11.3617C121.027 11.3617 123.157 12.512 124.253 14.8327C125.003 16.4068 125.369 18.9697 125.369 22.5619V24.8826Z" fill="#FF0000"/>
<path d="M144.684 16.9517L141.965 20.4429V45.8301C141.965 49.3617 141.6 51.9246 140.849 53.4987C139.754 55.7993 137.664 56.9697 134.58 56.9697C131.476 56.9697 129.366 55.8194 128.25 53.539C127.519 51.9851 127.154 49.4222 127.154 45.8502V11.9065H133.322V48.1912C133.322 50.3909 133.728 51.5008 134.56 51.5008C135.371 51.5008 135.777 50.3909 135.777 48.1912V11.9065H139.105V10.0903H144.684V16.9517Z" fill="#FF0000"/>
<path d="M160.814 10.1105V16.9517L158.522 20.0393V45.8301C158.522 49.3818 158.156 51.965 157.406 53.5189C156.29 55.7993 154.18 56.9495 151.035 56.9495C147.91 56.9495 145.8 55.7993 144.704 53.5189C143.954 51.965 143.589 49.402 143.589 45.8301V22.5417C143.589 18.9697 143.954 16.3866 144.704 14.8529C145.8 12.5119 147.91 11.3617 151.035 11.3617C152.759 11.3617 154.159 11.6845 155.255 12.3505V10.1306H160.814V10.1105ZM146.084 3.32979H151.461L153.571 8.98035H149.452L146.084 3.32979ZM149.817 48.1912C149.817 50.3909 150.223 51.5008 151.035 51.5008C151.684 51.5008 152.07 51.077 152.212 50.2294C152.252 50.0074 152.272 49.3415 152.272 48.1912V20.0191C152.272 17.8194 151.867 16.7095 151.035 16.7095C150.223 16.7095 149.817 17.8194 149.817 20.0191V48.1912Z" fill="#FF0000"/>
<path d="M166.759 11.9065H160.53V56.3845H166.759V11.9065Z" fill="#FF0000"/>
<path d="M178.588 56.3845V17.2947H175.301V11.9065H188.022V17.2947H184.796V56.3845H178.588Z" fill="#FF0000"/>
<path d="M195.347 11.9065H189.118V56.3845H195.347V11.9065Z" fill="#FF0000"/>
<path d="M201.17 3.32979H206.283L209.894 8.98035H205.411L203.726 6.72013L202.042 8.98035H197.558L201.17 3.32979ZM197.802 56.3845V11.9065H209.976V17.2746H203.848V28.4344H209.671V33.8024H203.848V50.9963H209.976V56.3643H197.802V56.3845Z" fill="#FF0000"/>
<path d="M217.158 48.1912C217.158 50.3909 217.564 51.5008 218.396 51.5008C219.207 51.5008 219.613 50.3909 219.613 48.1912V11.9065H225.781V45.8301C225.781 49.3617 225.416 51.9246 224.665 53.4987C223.57 55.7993 221.48 56.9697 218.396 56.9697C215.291 56.9697 213.181 55.8194 212.065 53.539C211.335 51.9851 210.97 49.4222 210.97 45.8502V11.9065H217.138V48.1912H217.158Z" fill="#FF0000"/>
<path d="M235.297 11.9065H242.297C245.401 11.9065 247.511 12.6532 248.627 14.1668C249.56 15.4381 250.027 17.6984 250.027 20.9676V47.3234C250.027 50.5927 249.56 52.8529 248.627 54.1243C247.511 55.6378 245.401 56.3845 242.297 56.3845H235.297V11.9065ZM243.9 47.1014V21.23C243.9 19.8375 243.839 18.9294 243.717 18.5661C243.413 17.7387 242.743 17.3351 241.668 17.3351H241.343V51.0366H241.668C242.743 51.0366 243.413 50.633 243.717 49.8056C243.839 49.402 243.9 48.5141 243.9 47.1014Z" fill="#FF0000"/>
<path d="M257.838 48.1912C257.838 50.3909 258.244 51.5008 259.076 51.5008C259.888 51.5008 260.294 50.3909 260.294 48.1912V11.9065H266.462V45.8301C266.462 49.3617 266.096 51.9246 265.346 53.4987C264.25 55.7993 262.18 56.9697 259.076 56.9697C255.972 56.9697 253.862 55.8194 252.746 53.539C252.015 51.9851 251.65 49.4222 251.65 45.8502V11.9065H257.818V48.1912H257.838ZM254.126 3.32979H259.502L261.612 8.98035H257.494L254.126 3.32979Z" fill="#FF0000"/>
<path d="M268.551 11.9065H273.664C274.861 14.0053 276.099 16.5884 277.398 19.6559L277.134 11.9065H283.139V56.3845H277.154V38.8678C277.154 34.8922 277.053 32.0064 276.829 30.2103C276.444 26.9612 275.612 24.2369 274.334 22.017C274.496 24.6405 274.598 27.5061 274.598 30.5937V56.3845H268.551V11.9065Z" fill="#FF0000"/>
<path d="M300 24.8826H293.771V20.0393C293.771 17.8194 293.365 16.7297 292.533 16.7297C291.722 16.7297 291.316 17.8396 291.316 20.0393V48.1912C291.316 50.3909 291.722 51.5008 292.533 51.5008C293.183 51.5008 293.568 51.077 293.71 50.2294C293.751 50.0074 293.771 49.3415 293.771 48.1912V33.7621H292.391V28.3941H300V56.4047H296.875L296.267 54.4673C295.496 56.1827 293.873 57.0505 291.377 57.0505C288.557 57.0505 286.71 55.7993 285.818 53.2767C285.331 51.8842 285.087 49.402 285.087 45.8704V22.5417C285.087 18.9697 285.452 16.3866 286.203 14.8529C287.299 12.512 289.409 11.3617 292.533 11.3617C295.658 11.3617 297.788 12.512 298.884 14.8327C299.635 16.4068 300 18.9697 300 22.5619V24.8826Z" fill="#FF0000"/>
<path d="M3.75357 74.4864C3.24634 74.4864 2.77968 74.4057 2.37389 74.2443C1.9681 74.0828 1.60289 73.8609 1.29855 73.5581C0.994208 73.2554 0.771024 72.8922 0.608708 72.4684C0.446392 72.0446 0.365234 71.5603 0.365234 71.0154C0.365234 70.4705 0.446392 69.9862 0.608708 69.5624C0.771024 69.1386 0.994208 68.7754 1.29855 68.4726C1.60289 68.1699 1.94781 67.9479 2.37389 67.7865C2.77968 67.6251 3.24634 67.5443 3.75357 67.5443C4.32168 67.5443 4.82892 67.6452 5.27528 67.847C5.72165 68.0489 6.08686 68.3112 6.37092 68.6744C6.65497 69.0377 6.81728 69.4413 6.87815 69.9256H5.6202C5.55934 69.6633 5.45789 69.4211 5.27528 69.2395C5.11297 69.0377 4.88979 68.8964 4.62602 68.7754C4.36226 68.6744 4.05792 68.6139 3.73329 68.6139C3.30721 68.6139 2.942 68.7148 2.61737 68.8964C2.31302 69.0781 2.06955 69.3404 1.88694 69.7037C1.70434 70.0669 1.62318 70.4907 1.62318 71.0154C1.62318 71.3988 1.66376 71.7419 1.76521 72.0446C1.86665 72.3473 2.00868 72.6097 2.19129 72.8115C2.37389 73.0133 2.59708 73.1747 2.86084 73.2756C3.1246 73.3765 3.40865 73.4371 3.73329 73.4371C4.05792 73.4371 4.36226 73.3765 4.62602 73.2756C4.88979 73.1747 5.11297 73.0133 5.27528 72.8115C5.45789 72.6097 5.55934 72.3877 5.6202 72.1051H6.87815C6.81728 72.5895 6.65497 72.9931 6.37092 73.3563C6.08686 73.7196 5.72165 74.0021 5.27528 74.2039C4.82892 74.3855 4.32168 74.4864 3.75357 74.4864Z" fill="#828282"/>
<path d="M10.9563 74.4865C10.4491 74.4865 9.98244 74.4057 9.57665 74.2443C9.17086 74.0828 8.80565 73.8609 8.50131 73.5582C8.19697 73.2554 7.97378 72.8922 7.81147 72.4684C7.64915 72.0446 7.56799 71.5603 7.56799 71.0154C7.56799 70.4705 7.64915 69.9862 7.81147 69.5624C7.97378 69.1386 8.19697 68.7754 8.50131 68.4727C8.80565 68.1699 9.15057 67.948 9.57665 67.7865C9.98244 67.6251 10.4491 67.5443 10.9563 67.5443C11.4636 67.5443 11.9302 67.6251 12.336 67.7865C12.7418 67.948 13.107 68.1699 13.4114 68.4727C13.7157 68.7754 13.9389 69.1386 14.1012 69.5624C14.2635 69.9862 14.3447 70.4705 14.3447 71.0154C14.3447 71.5603 14.2635 72.0446 14.1012 72.4684C13.9389 72.8922 13.7157 73.2554 13.4114 73.5582C13.107 73.8609 12.7621 74.0828 12.336 74.2443C11.9099 74.4057 11.4636 74.4865 10.9563 74.4865ZM10.9563 73.4371C11.3824 73.4371 11.7679 73.3362 12.0925 73.1545C12.4172 72.9729 12.6606 72.6904 12.823 72.3473C12.9853 71.9841 13.0867 71.5603 13.0867 71.0356C13.0867 70.6522 13.0461 70.3091 12.9447 70.0064C12.8433 69.7037 12.7012 69.4615 12.5186 69.2597C12.336 69.0579 12.1128 68.8964 11.8491 68.7955C11.5853 68.6946 11.3013 68.6341 10.9766 68.6341C10.5505 68.6341 10.1853 68.735 9.8607 68.9166C9.55636 69.0982 9.31289 69.3606 9.13028 69.7238C8.94768 70.0871 8.86652 70.5109 8.86652 71.0356C8.86652 71.419 8.9071 71.7621 9.00855 72.0648C9.10999 72.3675 9.25202 72.6298 9.43462 72.8317C9.61723 73.0335 9.84041 73.1949 10.1042 73.2958C10.3274 73.3765 10.6317 73.4371 10.9563 73.4371ZM9.35347 67.0398L10.3679 65.7079H11.5041L12.5186 67.0398H11.565L10.9563 66.2528L10.3679 67.0398H9.35347ZM12.5795 66.5959L12.2346 66.1721C12.336 66.0913 12.4172 66.0106 12.478 65.9299C12.5389 65.8492 12.5795 65.7483 12.5795 65.6474C12.5795 65.5465 12.5389 65.4658 12.478 65.4052C12.4172 65.3447 12.3157 65.3043 12.194 65.3043C12.1534 65.3043 12.0925 65.3043 12.052 65.3245C11.9911 65.3245 11.9505 65.3447 11.9099 65.3648V64.8603C11.9911 64.82 12.0925 64.7998 12.194 64.7998C12.2954 64.7796 12.3969 64.7796 12.478 64.7796C12.7621 64.7796 12.9853 64.8402 13.1476 64.9814C13.3099 65.1227 13.3708 65.3043 13.3708 65.5263C13.3708 65.7281 13.3099 65.9097 13.1882 66.0913C13.0867 66.2932 12.8838 66.4546 12.5795 66.5959Z" fill="#828282"/>
<path d="M15.3997 74.4057V67.6452H16.9214L20.0663 72.6904H20.1271L20.0663 70.5311V67.6452H21.2634V74.4057H19.8228L16.6576 69.4009H16.5968L16.6576 71.419V74.4057H15.3997Z" fill="#828282"/>
<path d="M25.5242 74.4864C25.0372 74.4864 24.5908 74.4057 24.2053 74.2443C23.8198 74.0828 23.4749 73.8609 23.1909 73.5581C22.9068 73.2554 22.6836 72.9124 22.5416 72.4886C22.3793 72.0648 22.3184 71.6006 22.3184 71.0759C22.3184 70.5311 22.3996 70.0265 22.5619 69.6028C22.7242 69.1588 22.9677 68.7955 23.272 68.4928C23.5764 68.1901 23.9416 67.9479 24.3474 67.7865C24.7734 67.6251 25.2401 67.5443 25.7676 67.5443C26.3357 67.5443 26.8633 67.6452 27.3096 67.8269C27.756 68.0085 28.1212 68.2708 28.4053 68.6139C28.6893 68.957 28.8719 69.3606 28.9328 69.8247H27.6748C27.614 69.5826 27.4922 69.3606 27.3096 69.179C27.127 68.9973 26.9241 68.8561 26.6604 68.7552C26.3966 68.6543 26.0923 68.6139 25.7473 68.6139C25.2807 68.6139 24.8952 68.7148 24.5706 68.9166C24.2459 69.1184 24.0024 69.4009 23.8401 69.7642C23.6778 70.1274 23.5967 70.5512 23.5967 71.0356C23.5967 71.419 23.6575 71.7621 23.759 72.0446C23.8604 72.3473 24.0024 72.5895 24.1851 72.7913C24.3677 72.9931 24.5908 73.1545 24.8546 73.2554C25.1184 73.3563 25.4024 73.4169 25.7473 73.4169C26.1328 73.4169 26.4778 73.3362 26.7821 73.1949C27.0864 73.0536 27.3096 72.8518 27.4719 72.5895C27.6343 72.3271 27.7154 72.0244 27.7154 71.6814V71.3383L27.9792 71.5804H25.5647V70.6723H29.0139V74.325H28.0198L27.9589 73.1545H27.898C27.7966 73.4169 27.614 73.6187 27.3908 73.8205C27.1473 74.0021 26.8836 74.1636 26.5589 74.2645C26.2343 74.4259 25.8894 74.4864 25.5242 74.4864Z" fill="#828282"/>
<path d="M31.7733 67.6452H37.1703V68.7148H31.7733V67.6452ZM33.8429 68.5937H35.0805V74.4057H33.8429V68.5937Z" fill="#828282"/>
<path d="M38.0833 67.6452H39.321V74.4057H38.0833V67.6452ZM39.0369 70.41H43.0948V71.4594H39.0369V70.41ZM42.8108 67.6452H44.0484V74.4057H42.8108V67.6452Z" fill="#828282"/>
<path d="M48.4715 74.4865C47.9643 74.4865 47.4976 74.4057 47.0918 74.2443C46.6861 74.0828 46.3208 73.8609 46.0165 73.5581C45.7122 73.2554 45.489 72.8922 45.3267 72.4684C45.1643 72.0446 45.0832 71.5603 45.0832 71.0154C45.0832 70.4705 45.1643 69.9862 45.3267 69.5624C45.489 69.1386 45.7122 68.7754 46.0165 68.4727C46.3208 68.1699 46.6658 67.948 47.0918 67.7865C47.4976 67.6251 47.9643 67.5443 48.4715 67.5443C48.9788 67.5443 49.4454 67.6251 49.8512 67.7865C50.257 67.948 50.6222 68.1699 50.9266 68.4727C51.2309 68.7754 51.4541 69.1386 51.6164 69.5624C51.7787 69.9862 51.8599 70.4705 51.8599 71.0154C51.8599 71.5603 51.7787 72.0446 51.6164 72.4684C51.4541 72.8922 51.2309 73.2554 50.9266 73.5581C50.6222 73.8609 50.2773 74.0828 49.8512 74.2443C49.4454 74.4057 48.9991 74.4865 48.4715 74.4865ZM48.4715 73.4371C48.8976 73.4371 49.2831 73.3362 49.6077 73.1545C49.9324 72.9729 50.1758 72.6904 50.3382 72.3473C50.5005 71.9841 50.6019 71.5603 50.6019 71.0356C50.6019 70.6521 50.5613 70.3091 50.4599 70.0064C50.3585 69.7037 50.2164 69.4615 50.0338 69.2597C49.8512 69.0579 49.628 68.8964 49.3643 68.7955C49.1005 68.6946 48.8164 68.6341 48.4918 68.6341C48.0657 68.6341 47.7005 68.735 47.3759 68.9166C47.0716 69.0982 46.8281 69.3606 46.6455 69.7238C46.4629 70.0871 46.3817 70.5109 46.3817 71.0356C46.3817 71.419 46.4223 71.7621 46.5237 72.0648C46.6252 72.3675 46.7672 72.6298 46.9498 72.8316C47.1324 73.0335 47.3556 73.1949 47.6194 73.2958C47.8628 73.3765 48.1672 73.4371 48.4715 73.4371ZM46.889 67.0398L47.9034 65.7079H49.0396L50.0541 67.0398H49.0599L48.4512 66.2528L47.8628 67.0398H46.889Z" fill="#828282"/>
<path d="M52.9149 74.4057V67.6452H54.4569L57.6018 72.6904H57.6627L57.6018 70.5311V67.6452H58.7989V74.4057H57.338L54.1729 69.4009H54.1323L54.1729 71.419V74.4057H52.9149Z" fill="#828282"/>
<path d="M63.0597 74.4864C62.5727 74.4864 62.1263 74.4057 61.7408 74.2443C61.3553 74.0828 61.0104 73.8609 60.7264 73.5581C60.4423 73.2554 60.2191 72.9124 60.0771 72.4886C59.9148 72.0648 59.8539 71.6006 59.8539 71.0759C59.8539 70.5311 59.9351 70.0265 60.0974 69.6028C60.2597 69.1588 60.5032 68.7955 60.8075 68.4928C61.1119 68.1901 61.4771 67.9479 61.8829 67.7865C62.309 67.6251 62.7756 67.5443 63.3031 67.5443C63.8712 67.5443 64.3988 67.6452 64.8451 67.8269C65.2915 68.0085 65.6567 68.2708 65.9408 68.6139C66.2248 68.957 66.4074 69.3606 66.4683 69.8247H65.2103C65.1495 69.5826 65.0277 69.3606 64.8451 69.179C64.6625 68.9973 64.4393 68.8561 64.1959 68.7552C63.9321 68.6543 63.6278 68.6139 63.2828 68.6139C62.8162 68.6139 62.4307 68.7148 62.1061 68.9166C61.7814 69.1184 61.538 69.4009 61.3756 69.7642C61.2133 70.1274 61.1322 70.5512 61.1322 71.0356C61.1322 71.419 61.193 71.7621 61.2945 72.0446C61.3959 72.3473 61.538 72.5895 61.7206 72.7913C61.9032 72.9931 62.1263 73.1545 62.3901 73.2554C62.6539 73.3563 62.9379 73.4169 63.2828 73.4169C63.6683 73.4169 64.0133 73.3362 64.3176 73.1949C64.622 73.0536 64.8451 72.8518 65.0075 72.5895C65.1698 72.3271 65.2509 72.0244 65.2509 71.6814V71.3383L65.5147 71.5804H63.1002V70.6723H66.5495V74.325H65.5553L65.4944 73.1545H65.4335C65.3321 73.4169 65.1495 73.6187 64.9263 73.8205C64.6828 74.0021 64.4191 74.1636 64.0944 74.2645C63.7698 74.4259 63.4249 74.4864 63.0597 74.4864Z" fill="#828282"/>
<path d="M69.3088 67.6452H74.7058V68.7148H69.3088V67.6452ZM71.3784 68.5937H72.616V74.4057H71.3784V68.5937Z" fill="#828282"/>
<path d="M76.8565 67.6452H75.6188V74.4057H76.8565V67.6452Z" fill="#828282"/>
<path d="M78.2362 74.4057V67.6452H79.7579L82.9028 72.6904H82.9636L82.9028 70.5311V67.6452H84.0999V74.4057H82.6593L79.4941 69.4009H79.4333L79.4941 71.419V74.4057H78.2362Z" fill="#828282"/>
<path d="M90.5722 74.4864C90.0649 74.4864 89.5983 74.4057 89.1925 74.2443C88.7867 74.0828 88.4215 73.8609 88.1171 73.5581C87.8128 73.2554 87.5896 72.8922 87.4273 72.4684C87.265 72.0446 87.1838 71.5603 87.1838 71.0154C87.1838 70.4705 87.265 69.9862 87.4273 69.5624C87.5896 69.1386 87.8128 68.7754 88.1171 68.4726C88.4215 68.1699 88.7664 67.9479 89.1925 67.7865C89.5983 67.6251 90.0649 67.5443 90.5722 67.5443C91.1403 67.5443 91.6475 67.6452 92.0939 67.847C92.5402 68.0489 92.9054 68.3112 93.1895 68.6744C93.4736 69.0377 93.6359 69.4413 93.6967 69.9256H92.4388C92.3779 69.6633 92.2765 69.4211 92.0939 69.2395C91.9316 69.0377 91.7084 68.8964 91.4446 68.7754C91.1809 68.6744 90.8765 68.6139 90.5519 68.6139C90.1258 68.6139 89.7606 68.7148 89.436 68.8964C89.1316 69.0781 88.8881 69.3404 88.7055 69.7037C88.5229 70.0669 88.4418 70.4907 88.4418 71.0154C88.4418 71.3988 88.4824 71.7419 88.5838 72.0446C88.6852 72.3473 88.8273 72.6097 89.0099 72.8115C89.1925 73.0133 89.4157 73.1747 89.6794 73.2756C89.9432 73.3765 90.2272 73.4371 90.5519 73.4371C90.8765 73.4371 91.1809 73.3765 91.4446 73.2756C91.7084 73.1747 91.9316 73.0133 92.0939 72.8115C92.2765 72.6097 92.3779 72.3877 92.4388 72.1051H93.6967C93.6359 72.5895 93.4736 72.9931 93.1895 73.3563C92.9054 73.7196 92.5402 74.0021 92.0939 74.2039C91.6475 74.3855 91.1403 74.4864 90.5722 74.4864Z" fill="#828282"/>
<path d="M97.43 74.4865C96.8416 74.4865 96.3344 74.3856 95.9083 74.1636C95.4822 73.9416 95.1576 73.6389 94.9344 73.2554C94.7112 72.872 94.5895 72.4079 94.5895 71.863V67.6452H95.8271V71.863C95.8271 72.2061 95.888 72.4886 96.03 72.7106C96.1518 72.9326 96.3547 73.1142 96.5778 73.2151C96.8213 73.3362 97.1054 73.3765 97.43 73.3765C97.7952 73.3765 98.0995 73.316 98.3227 73.1949C98.5662 73.0738 98.7488 72.8922 98.8503 72.6702C98.972 72.4482 99.0329 72.1657 99.0329 71.8428V67.6452H100.25V71.863C100.25 72.4079 100.129 72.872 99.9053 73.2756C99.6821 73.6591 99.3575 73.9618 98.9314 74.1837C98.5256 74.3856 98.0184 74.4865 97.43 74.4865ZM97.0445 67.2013L96.7402 66.6362C96.9836 66.5353 97.1662 66.4344 97.2677 66.3537C97.3691 66.2528 97.4097 66.1519 97.4097 66.0308C97.4097 65.9299 97.3691 65.8492 97.288 65.7886C97.2068 65.7281 97.1054 65.7079 96.9633 65.7079C96.8822 65.7079 96.801 65.7079 96.7402 65.7281C96.659 65.7483 96.5981 65.7685 96.517 65.7886V65.1832C96.6387 65.1429 96.7604 65.1227 96.8822 65.1227C97.0039 65.1025 97.1257 65.1025 97.2474 65.1025C97.5112 65.1025 97.7343 65.1429 97.8967 65.2034C98.0793 65.2841 98.201 65.3648 98.3024 65.5061C98.3836 65.6272 98.4445 65.7886 98.4445 65.9501C98.4445 66.2326 98.3227 66.4748 98.0996 66.6766C97.8764 66.8582 97.5314 67.0398 97.0445 67.2013Z" fill="#828282"/>
<path d="M100.839 74.4057L103.172 67.6452H104.917L107.25 74.4057H105.972L104.349 69.4413L104.085 68.5735H104.024L103.76 69.4413L102.137 74.4057H100.839ZM102.502 72.9124L102.746 71.9639H105.343L105.586 72.9124H102.502Z" fill="#828282"/>
<path d="M110.151 67.6452H111.389V74.4057H110.151V67.6452ZM111.085 70.41H115.143V71.4594H111.085V70.41ZM114.879 67.6452H116.117V74.4057H114.879V67.6452Z" fill="#828282"/>
<path d="M120.54 74.4865C120.032 74.4865 119.566 74.4057 119.16 74.2443C118.754 74.0828 118.389 73.8609 118.085 73.5581C117.78 73.2554 117.557 72.8922 117.395 72.4684C117.233 72.0446 117.151 71.5603 117.151 71.0154C117.151 70.4705 117.233 69.9862 117.395 69.5624C117.557 69.1386 117.78 68.7754 118.085 68.4727C118.389 68.1699 118.734 67.948 119.16 67.7865C119.566 67.6251 120.032 67.5443 120.54 67.5443C121.047 67.5443 121.514 67.6251 121.919 67.7865C122.325 67.948 122.69 68.1699 122.995 68.4727C123.299 68.7754 123.522 69.1386 123.685 69.5624C123.847 69.9862 123.928 70.4705 123.928 71.0154C123.928 71.5603 123.847 72.0446 123.685 72.4684C123.522 72.8922 123.299 73.2554 122.995 73.5581C122.69 73.8609 122.345 74.0828 121.919 74.2443C121.514 74.4057 121.047 74.4865 120.54 74.4865ZM120.54 73.4371C120.966 73.4371 121.351 73.3362 121.676 73.1545C122.001 72.9729 122.244 72.6904 122.406 72.3473C122.569 71.9841 122.67 71.5603 122.67 71.0356C122.67 70.6521 122.63 70.3091 122.528 70.0064C122.427 69.7037 122.285 69.4615 122.102 69.2597C121.919 69.0579 121.696 68.8964 121.432 68.7955C121.169 68.6946 120.885 68.6341 120.56 68.6341C120.134 68.6341 119.769 68.735 119.444 68.9166C119.14 69.0982 118.896 69.3606 118.714 69.7238C118.531 70.0871 118.45 70.5109 118.45 71.0356C118.45 71.419 118.49 71.7621 118.592 72.0648C118.693 72.3675 118.835 72.6298 119.018 72.8316C119.201 73.0335 119.424 73.1949 119.688 73.2958C119.931 73.3765 120.215 73.4371 120.54 73.4371ZM118.937 67.0398L119.951 65.7079H121.088L122.102 67.0398H121.108L120.499 66.2528L119.911 67.0398H118.937ZM120.54 76C120.377 76 120.256 75.9596 120.134 75.8587C120.012 75.7578 119.972 75.6367 119.972 75.4753C119.972 75.2937 120.032 75.1726 120.134 75.0717C120.256 74.9708 120.377 74.9304 120.54 74.9304C120.702 74.9304 120.844 74.9708 120.945 75.0717C121.067 75.1726 121.108 75.2937 121.108 75.4753C121.108 75.6367 121.047 75.7578 120.945 75.8587C120.844 75.9395 120.702 76 120.54 76Z" fill="#828282"/>
<path d="M126.221 67.6452H124.983V74.4057H126.221V67.6452Z" fill="#828282"/>
<path d="M129.609 74.4057V67.6452H132.855C133.525 67.6452 134.053 67.8067 134.397 68.1296C134.742 68.4525 134.925 68.8561 134.925 69.3808C134.925 69.6431 134.884 69.8651 134.783 70.0669C134.681 70.2687 134.56 70.4302 134.377 70.5714C134.195 70.7127 133.992 70.8136 133.748 70.8741V70.9347C134.053 70.975 134.316 71.0759 134.519 71.2374C134.722 71.3786 134.864 71.5603 134.966 71.7823C135.067 72.0042 135.108 72.2262 135.108 72.4886C135.108 72.8922 135.006 73.2554 134.824 73.538C134.641 73.8205 134.357 74.0425 134.012 74.1837C133.667 74.325 133.221 74.4057 132.734 74.4057H129.609ZM130.806 73.4371H132.571C132.997 73.4371 133.322 73.3362 133.525 73.1545C133.728 72.9729 133.829 72.7106 133.829 72.4079C133.829 72.0648 133.728 71.8226 133.525 71.6612C133.322 71.4997 133.038 71.419 132.673 71.419H130.705V70.5109H132.612C132.855 70.5109 133.058 70.4705 133.221 70.3898C133.383 70.3091 133.505 70.2082 133.566 70.0669C133.647 69.9256 133.687 69.7642 133.687 69.5624C133.687 69.2597 133.586 69.0175 133.383 68.8561C133.18 68.6946 132.896 68.6139 132.551 68.6139H130.826V73.4371H130.806Z" fill="#828282"/>
<path d="M135.635 74.4057L137.968 67.6452H139.713L142.047 74.4057H140.768L139.145 69.4413L138.881 68.5736H138.821L138.557 69.4413L136.934 74.4057H135.635ZM137.299 72.9124L137.542 71.9639H140.139L140.383 72.9124H137.299ZM138.435 67.2013L138.131 66.6362C138.374 66.5353 138.557 66.4344 138.658 66.3537C138.76 66.2528 138.8 66.1519 138.8 66.0308C138.8 65.9299 138.76 65.8492 138.678 65.7886C138.597 65.7281 138.496 65.7079 138.354 65.7079C138.273 65.7079 138.192 65.7079 138.131 65.7281C138.05 65.7483 137.989 65.7685 137.907 65.7886V65.1832C138.029 65.1429 138.151 65.1227 138.273 65.1227C138.394 65.1025 138.516 65.1025 138.638 65.1025C138.902 65.1025 139.125 65.1429 139.287 65.2034C139.47 65.2841 139.592 65.3648 139.693 65.5061C139.774 65.6272 139.835 65.7886 139.835 65.9501C139.835 66.2326 139.713 66.4748 139.49 66.6766C139.267 66.8582 138.922 67.0398 138.435 67.2013Z" fill="#828282"/>
<path d="M145.739 74.4864C145.232 74.4864 144.765 74.4057 144.36 74.2443C143.954 74.0828 143.589 73.8609 143.284 73.5581C142.98 73.2554 142.757 72.8922 142.594 72.4684C142.432 72.0446 142.351 71.5603 142.351 71.0154C142.351 70.4705 142.432 69.9862 142.594 69.5624C142.757 69.1386 142.98 68.7754 143.284 68.4726C143.589 68.1699 143.933 67.9479 144.36 67.7865C144.765 67.6251 145.232 67.5443 145.739 67.5443C146.246 67.5443 146.713 67.6251 147.119 67.7865C147.525 67.9479 147.89 68.1699 148.194 68.4726C148.499 68.7754 148.722 69.1386 148.884 69.5624C149.046 69.9862 149.128 70.4705 149.128 71.0154C149.128 71.5603 149.046 72.0446 148.884 72.4684C148.722 72.8922 148.499 73.2554 148.194 73.5581C147.89 73.8609 147.545 74.0828 147.119 74.2443C146.713 74.4057 146.267 74.4864 145.739 74.4864ZM145.739 73.4371C146.165 73.4371 146.551 73.3362 146.875 73.1545C147.2 72.9729 147.444 72.6904 147.606 72.3473C147.768 71.9841 147.87 71.5603 147.87 71.0356C147.87 70.6521 147.829 70.3091 147.728 70.0064C147.626 69.7037 147.484 69.4615 147.302 69.2597C147.119 69.0579 146.896 68.8964 146.632 68.7955C146.368 68.6946 146.084 68.6341 145.76 68.6341C145.333 68.6341 144.968 68.735 144.644 68.9166C144.339 69.0982 144.096 69.3606 143.913 69.7238C143.731 70.0871 143.649 70.5109 143.649 71.0356C143.649 71.419 143.69 71.7621 143.791 72.0648C143.893 72.3675 144.035 72.6298 144.218 72.8316C144.4 73.0334 144.623 73.1949 144.887 73.2958C145.131 73.3765 145.435 73.4371 145.739 73.4371Z" fill="#828282"/>
<path d="M154.139 74.4057L151.725 67.6452H153.084L154.342 71.6612L154.93 73.4169H155.012L155.58 71.6612L156.858 67.6452H158.217L155.803 74.4057H154.139Z" fill="#828282"/>
<path d="M159.09 74.4057V67.6452H163.939V68.6946H160.064L160.327 68.4323V73.6187L160.064 73.3563H163.959V74.4057H159.09ZM159.78 67.0398L160.794 65.7079H161.93L162.945 67.0398H161.951L161.342 66.2528L160.753 67.0398H159.78ZM160.064 70.4705H163.472V71.4594H160.064V70.4705ZM161.362 76C161.2 76 161.078 75.9596 160.956 75.8587C160.835 75.7578 160.794 75.6367 160.794 75.4753C160.794 75.2937 160.855 75.1726 160.956 75.0717C161.078 74.9708 161.2 74.9304 161.362 74.9304C161.524 74.9304 161.666 74.9708 161.768 75.0717C161.89 75.1726 161.93 75.2937 161.93 75.4753C161.93 75.6367 161.869 75.7578 161.768 75.8587C161.666 75.9395 161.524 76 161.362 76Z" fill="#828282"/>
<path d="M167.003 74.4057V67.6452H168.524L171.669 72.6904H171.73L171.669 70.5311V67.6452H172.866V74.4057H171.426L168.261 69.4009H168.2L168.261 71.419V74.4057H167.003Z" fill="#828282"/>
<path d="M177.127 74.4864C176.64 74.4864 176.194 74.4057 175.808 74.2443C175.423 74.0828 175.078 73.8609 174.794 73.5581C174.51 73.2554 174.286 72.9124 174.144 72.4886C173.982 72.0648 173.921 71.6006 173.921 71.0759C173.921 70.5311 174.002 70.0265 174.165 69.6028C174.327 69.1588 174.571 68.7955 174.875 68.4928C175.179 68.1901 175.544 67.9479 175.95 67.7865C176.376 67.6251 176.843 67.5443 177.37 67.5443C177.939 67.5443 178.466 67.6452 178.912 67.8269C179.359 68.0085 179.724 68.2708 180.008 68.6139C180.292 68.957 180.475 69.3606 180.536 69.8247H179.278C179.217 69.5826 179.095 69.3606 178.912 69.179C178.73 68.9973 178.507 68.8561 178.263 68.7552C177.999 68.6543 177.695 68.6139 177.35 68.6139C176.884 68.6139 176.498 68.7148 176.173 68.9166C175.849 69.1184 175.605 69.4009 175.443 69.7642C175.281 70.1274 175.2 70.5512 175.2 71.0356C175.2 71.419 175.26 71.7621 175.362 72.0446C175.463 72.3473 175.605 72.5895 175.788 72.7913C175.971 72.9931 176.194 73.1545 176.457 73.2554C176.721 73.3563 177.005 73.4169 177.35 73.4169C177.736 73.4169 178.081 73.3362 178.385 73.1949C178.689 73.0536 178.912 72.8518 179.075 72.5895C179.237 72.3271 179.318 72.0244 179.318 71.6814V71.3383L179.582 71.5804H177.168V70.6723H180.617V74.325H179.623L179.562 73.1545H179.501C179.399 73.4169 179.217 73.6187 178.994 73.8205C178.75 74.0021 178.486 74.1636 178.162 74.2645C177.837 74.4259 177.492 74.4864 177.127 74.4864Z" fill="#828282"/>
<path d="M184.533 74.4865C183.944 74.4865 183.437 74.3856 183.011 74.1636C182.585 73.9416 182.26 73.6389 182.037 73.2554C181.814 72.872 181.692 72.4079 181.692 71.863V67.6452H182.93V71.863C182.93 72.2061 182.991 72.4886 183.133 72.7106C183.254 72.9326 183.457 73.1142 183.681 73.2151C183.924 73.3362 184.208 73.3765 184.533 73.3765C184.898 73.3765 185.202 73.316 185.425 73.1949C185.669 73.0738 185.851 72.8922 185.953 72.6702C186.075 72.4482 186.136 72.1657 186.136 71.8428V67.6452H187.353V71.863C187.353 72.4079 187.231 72.872 187.008 73.2756C186.785 73.6591 186.46 73.9618 186.034 74.1837C185.628 74.3856 185.121 74.4865 184.533 74.4865ZM186.359 68.3112V67.6452C186.602 67.6452 186.785 67.6251 186.927 67.5645C187.069 67.504 187.17 67.4031 187.211 67.2416C187.272 67.1004 187.272 66.8986 187.251 66.6766H188.164C188.205 67.06 188.185 67.3627 188.043 67.6251C187.921 67.8672 187.718 68.0489 187.434 68.1699C187.17 68.291 186.805 68.3314 186.359 68.3112Z" fill="#828282"/>
<path d="M191.817 74.4865C191.309 74.4865 190.843 74.4057 190.437 74.2443C190.031 74.0828 189.666 73.8609 189.362 73.5581C189.057 73.2554 188.834 72.8922 188.672 72.4684C188.509 72.0446 188.428 71.5603 188.428 71.0154C188.428 70.4705 188.509 69.9862 188.672 69.5624C188.834 69.1386 189.057 68.7754 189.362 68.4727C189.666 68.1699 190.011 67.948 190.437 67.7865C190.843 67.6251 191.309 67.5443 191.817 67.5443C192.324 67.5443 192.79 67.6251 193.196 67.7865C193.602 67.948 193.967 68.1699 194.272 68.4727C194.576 68.7754 194.799 69.1386 194.961 69.5624C195.124 69.9862 195.205 70.4705 195.205 71.0154C195.205 71.5603 195.124 72.0446 194.961 72.4684C194.799 72.8922 194.576 73.2554 194.272 73.5581C193.967 73.8609 193.622 74.0828 193.196 74.2443C192.77 74.4057 192.324 74.4865 191.817 74.4865ZM191.817 73.4371C192.243 73.4371 192.628 73.3362 192.953 73.1545C193.277 72.9729 193.521 72.6904 193.683 72.3473C193.846 71.9841 193.947 71.5603 193.947 71.0356C193.947 70.6521 193.906 70.3091 193.805 70.0064C193.704 69.7037 193.561 69.4615 193.379 69.2597C193.196 69.0579 192.973 68.8964 192.709 68.7955C192.446 68.6946 192.162 68.6341 191.837 68.6341C191.411 68.6341 191.046 68.735 190.721 68.9166C190.417 69.0982 190.173 69.3606 189.991 69.7238C189.808 70.0871 189.727 70.5109 189.727 71.0356C189.727 71.419 189.767 71.7621 189.869 72.0648C189.97 72.3675 190.112 72.6298 190.295 72.8316C190.477 73.0335 190.701 73.1949 190.964 73.2958C191.188 73.3765 191.492 73.4371 191.817 73.4371ZM191.37 67.0398L190.538 65.7079H191.695L192.243 67.0398H191.37ZM193.318 68.5534V67.8874C193.561 67.8874 193.744 67.8672 193.886 67.8067C194.028 67.7461 194.13 67.6452 194.17 67.4838C194.231 67.3425 194.231 67.1407 194.211 66.9187H195.124C195.164 67.3022 195.144 67.6049 195.002 67.8672C194.88 68.1094 194.677 68.291 194.393 68.4121C194.13 68.5332 193.764 68.5736 193.318 68.5534Z" fill="#828282"/>
<path d="M197.498 67.6452H196.26V74.4057H197.498V67.6452Z" fill="#828282"/>
<path d="M200.419 67.6452H205.816V68.7148H200.419V67.6452ZM202.489 68.5937H203.727V74.4057H202.489V68.5937Z" fill="#828282"/>
<path d="M207.987 67.6452H206.75V74.4057H207.987V67.6452Z" fill="#828282"/>
<path d="M209.347 74.4057V67.6452H214.196V68.6946H210.321L210.584 68.4323V73.6187L210.321 73.3563H214.216V74.4057H209.347ZM210.037 67.0398L211.051 65.7079H212.187L213.202 67.0398H212.208L211.599 66.2528L211.01 67.0398H210.037ZM210.321 70.4705H213.729V71.4594H210.321V70.4705Z" fill="#828282"/>
<path d="M217.949 74.4864C217.361 74.4864 216.854 74.3855 216.428 74.1636C216.002 73.9416 215.677 73.6389 215.454 73.2554C215.231 72.872 215.109 72.4079 215.109 71.863V67.6452H216.347V71.863C216.347 72.206 216.407 72.4886 216.549 72.7106C216.671 72.9325 216.874 73.1142 217.097 73.2151C217.341 73.3362 217.625 73.3765 217.949 73.3765C218.315 73.3765 218.619 73.316 218.842 73.1949C219.086 73.0738 219.268 72.8922 219.37 72.6702C219.491 72.4482 219.552 72.1657 219.552 71.8428V67.6452H220.77V71.863C220.77 72.4079 220.648 72.872 220.425 73.2756C220.202 73.659 219.877 73.9618 219.451 74.1837C219.045 74.3855 218.538 74.4864 217.949 74.4864Z" fill="#828282"/>
<path d="M224.077 74.4057V67.6452H226.897C227.546 67.6452 228.114 67.7865 228.581 68.069C229.048 68.3516 229.393 68.735 229.636 69.2597C229.88 69.7642 230.001 70.3494 230.001 71.0356C230.001 71.5401 229.94 71.9841 229.798 72.4079C229.656 72.8316 229.454 73.1747 229.19 73.4774C228.926 73.7801 228.601 74.0021 228.216 74.1636C227.83 74.325 227.404 74.4057 226.897 74.4057H224.077ZM225.314 73.3362H226.714C227.019 73.3362 227.283 73.2958 227.526 73.2151C227.77 73.1344 227.993 72.9931 228.175 72.8115C228.358 72.6298 228.5 72.3877 228.601 72.085C228.703 71.7823 228.743 71.4392 228.743 71.0154C228.743 70.4705 228.662 70.0265 228.48 69.6835C228.317 69.3404 228.074 69.0982 227.769 68.9368C227.465 68.7753 227.12 68.6946 226.714 68.6946H225.314V73.3362Z" fill="#828282"/>
<path d="M233.877 74.4865C233.288 74.4865 232.781 74.3856 232.355 74.1636C231.929 73.9416 231.604 73.6389 231.381 73.2554C231.158 72.872 231.036 72.4079 231.036 71.863V67.6452H232.274V71.863C232.274 72.2061 232.335 72.4886 232.477 72.7106C232.598 72.9326 232.801 73.1142 233.024 73.2151C233.268 73.3362 233.552 73.3765 233.877 73.3765C234.242 73.3765 234.546 73.316 234.769 73.1949C235.013 73.0738 235.195 72.8922 235.297 72.6702C235.419 72.4482 235.48 72.1657 235.48 71.8428V67.6452H236.697V71.863C236.697 72.4079 236.575 72.872 236.352 73.2756C236.129 73.6591 235.804 73.9618 235.378 74.1837C234.972 74.3856 234.465 74.4865 233.877 74.4865ZM233.451 67.0398L232.619 65.7079H233.775L234.323 67.0398H233.451Z" fill="#828282"/>
<path d="M238.016 74.4057V67.6452H239.537L242.703 72.6904H242.763L242.703 70.5311V67.6452H243.9V74.4057H242.439L239.274 69.4009H239.213L239.274 71.419V74.4057H238.016Z" fill="#828282"/>
<path d="M248.16 74.4864C247.673 74.4864 247.227 74.4057 246.842 74.2443C246.456 74.0828 246.111 73.8609 245.827 73.5581C245.543 73.2554 245.32 72.9124 245.178 72.4886C245.016 72.0648 244.955 71.6006 244.955 71.0759C244.955 70.5311 245.036 70.0265 245.198 69.6028C245.36 69.1588 245.604 68.7955 245.908 68.4928C246.213 68.1901 246.578 67.9479 246.984 67.7865C247.41 67.6251 247.876 67.5443 248.404 67.5443C248.972 67.5443 249.5 67.6452 249.946 67.8269C250.392 68.0085 250.757 68.2708 251.042 68.6139C251.326 68.957 251.508 69.3606 251.569 69.8247H250.311C250.25 69.5826 250.129 69.3606 249.946 69.179C249.763 68.9973 249.54 68.8561 249.297 68.7552C249.033 68.6543 248.729 68.6139 248.384 68.6139C247.917 68.6139 247.531 68.7148 247.207 68.9166C246.882 69.1184 246.639 69.4009 246.476 69.7642C246.314 70.1274 246.233 70.5512 246.233 71.0356C246.233 71.419 246.294 71.7621 246.395 72.0446C246.497 72.3473 246.639 72.5895 246.821 72.7913C247.004 72.9931 247.227 73.1545 247.491 73.2554C247.755 73.3563 248.039 73.4169 248.384 73.4169C248.769 73.4169 249.114 73.3362 249.418 73.1949C249.723 73.0536 249.946 72.8518 250.108 72.5895C250.271 72.3271 250.352 72.0244 250.352 71.6814V71.3383L250.615 71.5804H248.201V70.6723H251.65V74.325H250.656L250.595 73.1545H250.534C250.433 73.4169 250.25 73.6187 250.027 73.8205C249.784 74.0021 249.52 74.1636 249.195 74.2645C248.871 74.4259 248.526 74.4864 248.16 74.4864Z" fill="#828282"/>
<path d="M256.804 74.4057L254.369 67.6452H255.749L257.007 71.6612L257.595 73.4169H257.656L258.244 71.6612L259.523 67.6452H260.882L258.447 74.4057H256.804Z" fill="#828282"/>
<path d="M262.992 67.6452H261.754V74.4057H262.992V67.6452Z" fill="#828282"/>
<path d="M264.351 74.4057V67.6452H269.201V68.6946H265.325L265.589 68.4323V73.6187L265.325 73.3563H269.221V74.4057H264.351ZM265.041 67.0398L266.056 65.7079H267.192L268.206 67.0398H267.212L266.604 66.2528L266.015 67.0398H265.041ZM265.325 70.4705H268.734V71.4594H265.325V70.4705ZM266.624 76C266.461 76 266.34 75.9596 266.218 75.8587C266.096 75.7578 266.056 75.6367 266.056 75.4753C266.056 75.2937 266.117 75.1726 266.218 75.0717C266.34 74.9708 266.461 74.9304 266.624 74.9304C266.786 74.9304 266.928 74.9708 267.03 75.0717C267.151 75.1726 267.192 75.2937 267.192 75.4753C267.192 75.6367 267.131 75.7578 267.03 75.8587C266.928 75.9395 266.786 76 266.624 76Z" fill="#828282"/>
<path d="M269.87 67.6452H275.267V68.7148H269.87V67.6452ZM271.94 68.5937H273.177V74.4057H271.94V68.5937Z" fill="#828282"/>
<path d="M278.209 74.4057V67.6452H279.731L282.896 72.6904H282.957L282.896 70.5311V67.6452H284.093V74.4057H282.632L279.467 69.4009H279.406L279.467 71.419V74.4057H278.209Z" fill="#828282"/>
<path d="M284.966 74.4057L287.299 67.6452H289.044L291.377 74.4057H290.099L288.476 69.4413L288.212 68.5735H288.151L287.887 69.4413L286.264 74.4057H284.966ZM286.629 72.9124L286.873 71.9639H289.47L289.713 72.9124H286.629Z" fill="#828282"/>
<path d="M292.229 74.4057V67.6452H294.177L295.293 70.9952L295.76 72.7106H295.82L296.267 70.9952L297.362 67.6452H299.31V74.4057H298.133V71.1365L298.154 68.7955H298.093L297.423 70.975L296.307 74.4057H295.252L294.157 70.975L293.487 68.7955H293.406L293.447 71.1365V74.4057H292.229Z" fill="#828282"/>
</svg>
